<svg version="1.1" id="Calque_1" xmlns="http://www.w3.org/2000/svg" xmlns:xlink="http://www.w3.org/1999/xlink" x="0px" y="0px" viewBox="0 0 58 28" style="enable-background:new 0 0 58 28;" xml:space="preserve">
  <g>
    <path d="M8.5,7.1h2.1l3,8.3h-1.9l-0.6-1.8H7.9l-0.6,1.8H5.4L8.5,7.1z M10.6,12.1L9.5,9l-1.1,3.2H10.6z"></path>
    <path d="M13.5,10.7V9.3h1V7.6h1.7v1.7h1.4v1.4h-1.4v2.7c0,0.2,0,0.4,0.1,0.5c0.1,0.1,0.2,0.1,0.5,0.1h0.9v1.4h-1.4
		c-1.2,0-1.8-0.6-1.8-1.8v-3H13.5z"></path>
    <path d="M19.6,9.6c0.5-0.3,1-0.4,1.6-0.4c0.6,0,1.2,0.1,1.6,0.4c0.5,0.2,0.8,0.6,1.1,1c0.3,0.4,0.4,1,0.4,1.6c0,0.2,0,0.4,0,0.6
		h-4.4v0c0,0.4,0.2,0.8,0.4,1c0.2,0.3,0.6,0.4,1,0.4c0.3,0,0.6-0.1,0.9-0.2c0.2-0.1,0.4-0.4,0.4-0.6h1.7c-0.1,0.4-0.2,0.8-0.5,1.1
		c-0.2,0.3-0.6,0.6-1,0.8c-0.4,0.2-0.9,0.3-1.4,0.3c-0.7,0-1.3-0.1-1.8-0.4c-0.5-0.3-0.9-0.6-1.1-1.1c-0.3-0.5-0.4-1-0.4-1.6
		c0-0.6,0.1-1.2,0.4-1.7S19.1,9.8,19.6,9.6z M22.2,10.8c-0.2-0.2-0.6-0.3-0.9-0.3c-0.4,0-0.7,0.1-0.9,0.3c-0.3,0.2-0.4,0.5-0.4,0.9
		h2.8C22.6,11.2,22.4,11,22.2,10.8z"></path>
    <path d="M27,7.1v8.3h-1.7V7.1H27z"></path>
    <path d="M30,7.7c0,0.3-0.1,0.5-0.3,0.7c-0.2,0.2-0.4,0.3-0.7,0.3s-0.5-0.1-0.7-0.3c-0.2-0.2-0.3-0.4-0.3-0.7s0.1-0.5,0.3-0.7
		c0.2-0.2,0.4-0.3,0.7-0.3s0.5,0.1,0.7,0.3C29.9,7.2,30,7.4,30,7.7z M29.9,9.3v6.1h-1.7V9.3H29.9z"></path>
    <path d="M32.3,9.6c0.5-0.3,1-0.4,1.6-0.4c0.6,0,1.2,0.1,1.6,0.4c0.5,0.2,0.8,0.6,1.1,1c0.3,0.4,0.4,1,0.4,1.6c0,0.2,0,0.4,0,0.6
		h-4.4v0c0,0.4,0.2,0.8,0.4,1c0.2,0.3,0.6,0.4,1,0.4c0.3,0,0.6-0.1,0.9-0.2c0.2-0.1,0.4-0.4,0.4-0.6H37c-0.1,0.4-0.2,0.8-0.5,1.1
		c-0.2,0.3-0.6,0.6-1,0.8c-0.4,0.2-0.9,0.3-1.4,0.3c-0.7,0-1.3-0.1-1.8-0.4c-0.5-0.3-0.9-0.6-1.1-1.1c-0.3-0.5-0.4-1-0.4-1.6
		c0-0.6,0.1-1.2,0.4-1.7S31.8,9.8,32.3,9.6z M34.9,10.8c-0.2-0.2-0.6-0.3-0.9-0.3c-0.4,0-0.7,0.1-0.9,0.3c-0.3,0.2-0.4,0.5-0.4,0.9
		h2.8C35.3,11.2,35.2,11,34.9,10.8z"></path>
    <path d="M41.8,10.8h-0.7c-0.5,0-0.8,0.1-1,0.4c-0.2,0.3-0.3,0.7-0.3,1.2v3H38V9.3h1.5l0.2,0.9c0.2-0.3,0.4-0.5,0.7-0.7
		c0.3-0.2,0.6-0.2,1.1-0.2h0.3V10.8z"></path>
    <path d="M8.8,17.2c0.8,0,1.6,0.2,2.2,0.5c0.6,0.4,1.1,0.8,1.5,1.5c0.3,0.6,0.5,1.4,0.5,2.2s-0.2,1.5-0.5,2.2
		c-0.3,0.6-0.8,1.1-1.5,1.5c-0.6,0.4-1.4,0.5-2.2,0.5H5.9v-8.3H8.8z M10.6,23.3c0.4-0.5,0.6-1.1,0.6-1.9s-0.2-1.5-0.6-1.9
		c-0.4-0.5-1-0.7-1.8-0.7H7.7v5.4h1.1C9.6,24.1,10.2,23.8,10.6,23.3z"></path>
    <path d="M15.2,19.7c0.5-0.3,1-0.4,1.6-0.4c0.6,0,1.2,0.1,1.6,0.4c0.5,0.2,0.8,0.6,1.1,1c0.3,0.4,0.4,1,0.4,1.6c0,0.2,0,0.4,0,0.6
		h-4.4v0c0,0.4,0.2,0.8,0.4,1c0.2,0.3,0.6,0.4,1,0.4c0.3,0,0.6-0.1,0.9-0.2c0.2-0.1,0.4-0.4,0.4-0.6h1.7c-0.1,0.4-0.2,0.8-0.5,1.1
		c-0.2,0.3-0.6,0.6-1,0.8c-0.4,0.2-0.9,0.3-1.4,0.3c-0.7,0-1.3-0.1-1.8-0.4c-0.5-0.3-0.9-0.6-1.1-1.1c-0.3-0.5-0.4-1-0.4-1.6
		c0-0.6,0.1-1.2,0.4-1.7C14.4,20.4,14.8,20,15.2,19.7z M17.9,20.9c-0.3-0.2-0.6-0.3-0.9-0.3c-0.4,0-0.7,0.1-0.9,0.3
		c-0.2,0.2-0.4,0.5-0.4,0.9h2.8C18.3,21.4,18.1,21.1,17.9,20.9z"></path>
    <path d="M22.7,24.2c0.2,0.2,0.5,0.3,0.9,0.3c0.4,0,0.6-0.1,0.8-0.2c0.2-0.1,0.3-0.3,0.3-0.5c0-0.2,0-0.3-0.1-0.4
		c-0.1-0.1-0.2-0.1-0.4-0.2c-0.2,0-0.5-0.1-0.9-0.1c-0.5-0.1-1-0.2-1.3-0.3c-0.4-0.1-0.6-0.3-0.9-0.5c-0.2-0.2-0.3-0.6-0.3-1
		s0.1-0.7,0.3-1.1c0.2-0.3,0.5-0.5,0.9-0.7c0.4-0.2,0.9-0.3,1.4-0.3c0.8,0,1.5,0.2,2,0.5c0.5,0.3,0.8,0.8,0.8,1.5h-1.6
		c0-0.2-0.1-0.4-0.4-0.6c-0.2-0.1-0.5-0.2-0.8-0.2c-0.3,0-0.6,0.1-0.8,0.2c-0.2,0.1-0.3,0.3-0.3,0.5c0,0.1,0.1,0.2,0.2,0.3
		c0.1,0.1,0.2,0.1,0.4,0.2c0.2,0,0.4,0.1,0.8,0.1c0.8,0.1,1.5,0.3,1.9,0.5s0.7,0.7,0.7,1.3c0,0.4-0.1,0.7-0.4,1
		c-0.2,0.3-0.6,0.5-1,0.7c-0.4,0.2-0.9,0.2-1.4,0.2c-0.8,0-1.5-0.2-2.1-0.6c-0.5-0.4-0.8-0.9-0.8-1.5h1.6
		C22.3,23.8,22.4,24,22.7,24.2z"></path>
    <path d="M29.2,17.8c0,0.3-0.1,0.5-0.3,0.7c-0.2,0.2-0.4,0.3-0.7,0.3s-0.5-0.1-0.7-0.3c-0.2-0.2-0.3-0.4-0.3-0.7
		c0-0.3,0.1-0.5,0.3-0.7c0.2-0.2,0.4-0.3,0.7-0.3s0.5,0.1,0.7,0.3C29.1,17.3,29.2,17.5,29.2,17.8z M29.1,19.4v6.1h-1.7v-6.1H29.1z"></path>
    <path d="M36.4,25.4c0,0.8-0.3,1.4-0.8,1.9C35,27.8,34.2,28,33.1,28c-0.9,0-1.6-0.2-2.1-0.6c-0.5-0.4-0.8-0.9-0.9-1.6h1.7
		c0.1,0.3,0.2,0.5,0.5,0.7c0.2,0.2,0.5,0.2,0.9,0.2c0.5,0,0.8-0.1,1.1-0.4c0.3-0.2,0.4-0.6,0.4-1.1v-0.6c-0.4,0.6-1.1,0.8-1.9,0.8
		c-0.5,0-1-0.1-1.5-0.4c-0.4-0.3-0.8-0.6-1-1.1c-0.2-0.5-0.4-1-0.4-1.6c0-0.6,0.1-1.2,0.4-1.6c0.2-0.5,0.6-0.8,1-1.1
		c0.4-0.3,0.9-0.4,1.5-0.4c0.8,0,1.4,0.3,1.9,0.9l0.1-0.8h1.5V25.4z M34.7,22.5c0-0.5-0.1-0.9-0.4-1.3c-0.3-0.3-0.6-0.5-1.1-0.5
		c-0.5,0-0.8,0.2-1.1,0.5c-0.3,0.3-0.4,0.7-0.4,1.3s0.1,0.9,0.4,1.3c0.3,0.3,0.6,0.5,1.1,0.5c0.5,0,0.8-0.2,1.1-0.5
		C34.6,23.4,34.7,23,34.7,22.5z"></path>
    <path d="M43.6,22.2v3.3h-1.7v-3.2c0-1.1-0.4-1.6-1.2-1.6c-0.4,0-0.8,0.1-1,0.4c-0.2,0.3-0.4,0.7-0.4,1.2v3.1h-1.7v-6.1h1.5l0.2,0.8
		c0.2-0.3,0.5-0.5,0.8-0.6c0.3-0.1,0.7-0.2,1.1-0.2c0.7,0,1.3,0.2,1.8,0.7C43.3,20.5,43.6,21.2,43.6,22.2z"></path>
  </g>
</svg>