<svg xmlns="http://www.w3.org/2000/svg" viewBox="0 0 113.3 113.3"><defs><style>.cls-1{fill:none;}</style></defs><g id="Calque_2" data-name="Calque 2"><g id="Calque_1-2" data-name="Calque 1"><rect class="cls-1" width="113.3" height="113.3"/><path d="M71.43,18a2.41,2.41,0,0,1-1.16,1.48,2.38,2.38,0,0,1-1.9,0L66.78,19l.54-1.6,1,.34a1.11,1.11,0,0,0,.86,0,1.19,1.19,0,0,0,.5-.72l2-6,1.85.62Z"/><path d="M77.8,23.32a4.84,4.84,0,0,1-4.09-2.27,4.14,4.14,0,0,1-.59-2.23,4.77,4.77,0,0,1,.65-2.35,4.87,4.87,0,0,1,1.65-1.8,4.23,4.23,0,0,1,2.2-.67,4.47,4.47,0,0,1,2.34.62,4.53,4.53,0,0,1,1.76,1.65,4.26,4.26,0,0,1,.59,2.23,5,5,0,0,1-.65,2.35A4.9,4.9,0,0,1,80,22.65,4.12,4.12,0,0,1,77.8,23.32Zm-2.51-3a2.35,2.35,0,0,0,1,1,2.28,2.28,0,0,0,1.33.31,2.55,2.55,0,0,0,1.29-.5,3.63,3.63,0,0,0,1-1.19,3.8,3.8,0,0,0,.47-1.49A2.48,2.48,0,0,0,80.12,17a2.47,2.47,0,0,0-2.31-1.28,2.46,2.46,0,0,0-1.28.5,3.52,3.52,0,0,0-1,1.19A3.45,3.45,0,0,0,75,18.93,2.5,2.5,0,0,0,75.29,20.29Z"/><path d="M87.28,19.72l-5.67,7.11-1.52-1.21,5.67-7.12Z"/><path d="M89.49,21.49l1.19,1.3L89.06,29.5l4.23-3.87,1.3,1.42-6.71,6.14-1.2-1.31,1.62-6.71L84.07,29l-1.29-1.41Z"/><path d="M101.71,58.2a2.29,2.29,0,0,1,.2,1.11,2.22,2.22,0,0,1-.33,1.09,2,2,0,0,1-.79.73,2.09,2.09,0,0,1-1.1.22A2.15,2.15,0,0,1,98.62,61a2,2,0,0,1-.7-.82,2.31,2.31,0,0,1-.21-1.12A2.48,2.48,0,0,1,98,58a2,2,0,0,1,.8-.73,2.24,2.24,0,0,1,1.1-.21,2.09,2.09,0,0,1,1.07.34A1.93,1.93,0,0,1,101.71,58.2Z"/><path d="M85.92,94.89l-1.11-1.25,2-1.75-4.94-5.53,1.45-1.3,5,5.53,2-1.75,1.12,1.25Z"/><path d="M82.35,97.27l-1.84-3.16-3.12,1.83,1.84,3.15-1.68,1L73,92.22l1.68-1,1.9,3.25,3.12-1.83-1.9-3.24,1.69-1L84,96.29Z"/><path d="M68.89,103.23l-.53-1.59,4-1.33-.65-1.93-3.21,1.07-.51-1.51,3.21-1.08-.67-2L66.4,96.23l-.54-1.59,5.93-2,2.9,8.63Z"/><path d="M37.75,97.67a2.19,2.19,0,0,1-1.11-.24,2.35,2.35,0,0,1-.88-.73,2,2,0,0,1-.36-1,2.09,2.09,0,0,1,.22-1.1,2.12,2.12,0,0,1,.74-.85,1.87,1.87,0,0,1,1-.33,2.2,2.2,0,0,1,1.11.25,2.33,2.33,0,0,1,.88.72,2,2,0,0,1,.36,1,2.08,2.08,0,0,1-.23,1.1,2,2,0,0,1-.73.85A2,2,0,0,1,37.75,97.67Z"/><path d="M10,68.88l1.58-.54.86,2.48,7-2.41.64,1.84-7,2.42L14,75.15l-1.59.55Z"/><path d="M8.66,60.66l1.66-.25.61,4.12,2-.3-.5-3.35L14,60.65l.5,3.35,2.08-.31L16,59.43l1.66-.25.92,6.19-9,1.33Z"/><path d="M8.61,55.17l.13-2.34L18,50l-.12,2.09-2,.59-.19,3.46,1.94.81-.11,2Zm5.66-2-3.52,1,3.38,1.38Z"/><path d="M10.06,44.64l7.13-.41L11.54,39.9l.75-2.39L21,40.23,20.42,42,14.6,40.18l5.11,4.08-.47,1.51-6.53.44L18.53,48,18,49.81,9.29,47.08Z"/><path d="M36.48,16.3a2.25,2.25,0,0,1,.89-.71,2.34,2.34,0,0,1,1.11-.23,2.07,2.07,0,0,1,1,.34,2.12,2.12,0,0,1,.71.87,2.14,2.14,0,0,1,.21,1.1,2,2,0,0,1-.38,1,2.25,2.25,0,0,1-.89.71,2.34,2.34,0,0,1-1.11.23,2,2,0,0,1-1-.35,2.12,2.12,0,0,1-.71-.87,2,2,0,0,1-.21-1.1A1.92,1.92,0,0,1,36.48,16.3Z"/></g></g></svg>