<?xml version="1.0" encoding="utf-8"?>
<!-- Generator: Adobe Illustrator 25.2.0, SVG Export Plug-In . SVG Version: 6.00 Build 0)  -->
<svg version="1.1" id="Calque_1" xmlns="http://www.w3.org/2000/svg" xmlns:xlink="http://www.w3.org/1999/xlink" x="0px" y="0px"
	 viewBox="0 0 113.3 113.3" style="enable-background:new 0 0 113.3 113.3;" xml:space="preserve">
<style type="text/css">
	.st0{fill:#FFFFFF;}
	.st1{fill:none;}
</style>
<path class="st0" d="M61,8.6l0.5,6.8l2.9-6.2l1.7,0.3l0.5,6.8l2.9-6.2l2,0.4L67.4,19l-2.2-0.4l-0.5-6.2L62.1,18l-2.2-0.4L59,8.2
	L61,8.6z"/>
<path class="st0" d="M75.7,12.5l2.1,1L77,23.1l-1.9-0.9l0.2-2.1l-3.1-1.5l-1.5,1.5l-1.8-0.8L75.7,12.5z M75.4,18.5l0.3-3.6l-2.5,2.6
	L75.4,18.5z"/>
<path class="st0" d="M87.1,19.3l-1,1.4L84,19.2l-4.3,6.1l-1.6-1.1l4.2-6.1l-2.2-1.5l1-1.4L87.1,19.3z"/>
<path class="st0" d="M89.6,22.3c0.8,0.3,1.5,0.7,2.1,1.3c0.5,0.5,0.8,1,1,1.7c0.2,0.6,0.2,1.2,0.1,1.8c-0.1,0.6-0.4,1.2-0.8,1.6
	l-1.3-1.4c0.3-0.4,0.4-0.9,0.4-1.4c0-0.5-0.3-0.9-0.6-1.3c-0.4-0.5-1.1-0.7-1.8-0.7c-1.5,0.3-2.8,1.5-3.1,3
	c-0.1,0.7,0.1,1.3,0.6,1.8c0.3,0.4,0.8,0.6,1.2,0.7c0.5,0,1-0.1,1.4-0.3l1.3,1.4c-0.5,0.4-1.1,0.6-1.7,0.8c-0.6,0.1-1.2,0-1.8-0.2
	c-0.6-0.2-1.2-0.6-1.6-1.1c-0.6-0.6-1-1.3-1.2-2.1c-0.2-0.7-0.2-1.5,0.1-2.2c0.6-1.6,1.9-2.8,3.5-3.4C88.1,22.1,88.8,22.1,89.6,22.3
	z"/>
<path class="st0" d="M96.9,30.3l-3.1,1.9l1.9,3.1l3.1-1.9l1,1.7L92,39.8l-1-1.7l3.2-1.9l-1.9-3.1L89.1,35l-1-1.7l7.8-4.7L96.9,30.3z
	"/>
<path class="st0" d="M101.7,56.7c0.3,0.7,0.3,1.5-0.1,2.2c-0.2,0.3-0.4,0.6-0.8,0.8c-0.7,0.4-1.5,0.3-2.2-0.1
	c-0.3-0.2-0.6-0.5-0.7-0.8c-0.2-0.3-0.3-0.7-0.2-1.1c0-0.4,0.1-0.8,0.3-1.1c0.2-0.3,0.4-0.6,0.8-0.8c0.3-0.2,0.7-0.3,1.1-0.2
	c0.4,0,0.8,0.1,1.1,0.3C101.3,56.1,101.6,56.4,101.7,56.7z"/>
<path class="st0" d="M94.8,85.8l-1.4-0.9l1.4-2.2l-6.2-4.1l1.1-1.7l6.3,4.1l1.4-2.2l1.4,0.9L94.8,85.8z"/>
<path class="st0" d="M92,89.1l-2.6-2.6l-2.5,2.6l2.6,2.6L88.1,93l-6.5-6.4l1.4-1.4l2.7,2.6l2.5-2.6l-2.7-2.6l1.4-1.4l6.5,6.4
	L92,89.1z"/>
<path class="st0" d="M80.6,98.3l-0.9-1.4l3.5-2.3L82,92.9l-2.8,1.9l-0.9-1.3l2.8-1.9l-1.2-1.8l-3.6,2.4l-0.9-1.4l5.2-3.5l5,7.6
	L80.6,98.3z"/>
<path class="st0" d="M59.5,101.6c-0.3,0.2-0.7,0.3-1.1,0.3c-0.4,0-0.8-0.1-1.1-0.2c-0.3-0.2-0.6-0.4-0.8-0.7
	c-0.2-0.3-0.3-0.7-0.3-1.1c0-0.4,0.1-0.8,0.2-1.1c0.2-0.3,0.4-0.6,0.7-0.8c0.3-0.2,0.7-0.3,1.1-0.3c0.4,0,0.8,0.1,1.1,0.2
	c0.3,0.2,0.6,0.4,0.8,0.7c0.4,0.7,0.4,1.5,0.1,2.2C60.1,101.1,59.8,101.4,59.5,101.6z"/>
<path class="st0" d="M33.3,98.7l1.4-7L29.1,96L27,94.7l4.8-7.7l1.6,1l-3.2,5.2l5.2-3.9l1.3,0.8l-1.2,6.4l3.2-5.2l1.6,1l-4.8,7.7
	L33.3,98.7z"/>
<path class="st0" d="M22.8,90.7L21.2,89l4.3-8.7l1.5,1.5l-1,1.9l2.4,2.5l1.9-0.9l1.4,1.5L22.8,90.7z M25.2,85.2l-1.7,3.3l3.3-1.5
	L25.2,85.2z"/>
<path class="st0" d="M16.5,83.1l3.5-2.1l-5.4-1l-1.2-2l4.9,0.9L21,73l1.2,2l-1.9,4.2l1.9,0.3l2-1.2l1,1.7l-7.8,4.8L16.5,83.1z"/>
<path class="st0" d="M11.9,74.1l8.4-3.5l0.8,1.8l-8.4,3.5L11.9,74.1z"/>
<path class="st0" d="M10.8,71.5l-0.4-1.7l4.7-5.1l-5.6,1.3l-0.4-1.9l8.9-2.1l0.4,1.7l-4.7,5.1l5.6-1.3l0.5,1.9L10.8,71.5z"/>
<path class="st0" d="M9.1,59.1c-0.4-0.7-0.6-1.6-0.6-2.4c0-0.7,0.1-1.3,0.4-1.9c0.3-0.6,0.7-1,1.1-1.4c0.5-0.4,1.1-0.6,1.7-0.7v1.9
	c-0.5,0.1-0.9,0.4-1.2,0.8c-0.3,0.4-0.5,0.9-0.4,1.4c0,0.5,0.1,0.9,0.4,1.3c0.3,0.4,0.6,0.7,1.1,0.8c0.5,0.2,1,0.3,1.6,0.3
	c0.8,0,1.5-0.2,2.1-0.7c0.5-0.4,0.8-1.1,0.8-1.8c0-0.5-0.2-1.1-0.5-1.5c-0.3-0.4-0.8-0.7-1.4-0.8h-0.1v2.3h-1.6l-0.1-4.1l5.1-0.1
	v1.3l-1.1,0.2c0.4,0.3,0.7,0.6,0.9,1.1c0.2,0.5,0.4,1,0.4,1.6c0.1,0.8-0.1,1.6-0.5,2.3c-0.4,0.7-0.9,1.2-1.6,1.5
	c-0.7,0.4-1.6,0.6-2.4,0.6c-0.8,0-1.7-0.1-2.4-0.5C10.1,60.3,9.5,59.8,9.1,59.1z"/>
<path class="st0" d="M20.9,39.7c0.2,1.6-0.5,3.3-1.8,4.3c-0.6,0.5-1.4,0.8-2.1,0.9c-1.7,0.2-3.3-0.5-4.4-1.8
	c-0.5-0.6-0.8-1.3-0.9-2.1c-0.1-0.8,0-1.6,0.3-2.4c0.3-0.8,0.8-1.5,1.4-2c0.6-0.5,1.4-0.8,2.1-0.9c1.7-0.2,3.3,0.5,4.4,1.8
	C20.5,38.2,20.8,38.9,20.9,39.7z M18.2,42.5c0.8-0.5,1.2-1.5,1-2.4c-0.1-0.5-0.3-0.9-0.6-1.2c-0.8-0.8-1.8-1.2-2.9-1.1
	c-0.5,0-0.9,0.2-1.3,0.4c-0.4,0.3-0.7,0.6-0.8,1.1c-0.2,0.4-0.2,0.9-0.1,1.4c0.1,0.5,0.3,0.9,0.6,1.2c0.8,0.8,1.8,1.2,2.9,1.2
	C17.3,43,17.8,42.8,18.2,42.5z"/>
<path class="st0" d="M18.5,27.2l1.4,0.9l-2.2,3.4l1.8,1.2l1.9-2.8l1.3,0.9l-1.9,2.8l3.1,2l-1.1,1.6l-7.6-5.1L18.5,27.2z"/>
<path class="st0" d="M36.5,16.2c0.5-0.6,1.2-1,2-0.9c0.4,0,0.7,0.1,1,0.4c0.3,0.2,0.6,0.5,0.7,0.9c0.2,0.3,0.2,0.7,0.2,1.1
	c0,0.4-0.2,0.7-0.4,1c-0.2,0.3-0.5,0.6-0.9,0.7c-0.3,0.2-0.7,0.3-1.1,0.2c-0.4,0-0.7-0.1-1-0.4c-0.3-0.2-0.6-0.5-0.7-0.9
	C36,17.6,36,16.8,36.5,16.2z"/>
<rect class="st1" width="113.3" height="113.3"/>
</svg>
