<svg xmlns="http://www.w3.org/2000/svg" viewBox="0 0 46.44 31.79"><g id="Calque_2" data-name="Calque 2"><g id="Calque_1-2" data-name="Calque 1"><path d="M25.84,31.79H20.72a4.72,4.72,0,0,1,0-9.44h5.12a4.72,4.72,0,0,1,0,9.44Zm-5.12-7.44a2.72,2.72,0,0,0,0,5.44h5.12a2.72,2.72,0,0,0,0-5.44Z"/><path d="M23.56,31.79H15.9A15.9,15.9,0,1,1,15.9,0H29.32a1,1,0,0,1,0,2H15.9a13.9,13.9,0,1,0,0,27.79h7.66a1,1,0,0,1,0,2Z"/><path d="M27.79,16.9H22.64a1,1,0,0,1,0-2h5.15a2.73,2.73,0,0,0,0-5.45H23.23a1,1,0,0,1,0-2h4.56a4.73,4.73,0,0,1,0,9.45Z"/><path d="M41.72,9.45H23.23a1,1,0,0,1,0-2H41.72a2.73,2.73,0,0,0,0-5.45h-19a1,1,0,0,1,0-2h19a4.73,4.73,0,0,1,0,9.45Z"/><path d="M19.51,18.61a4.73,4.73,0,0,1-4.73-4.72v-.78A8.21,8.21,0,0,1,9.62,16a1,1,0,1,1-.35-2,6.56,6.56,0,0,0,5.51-6.61V6.89a1,1,0,0,1,1-1,1,1,0,0,1,1,.94,6.16,6.16,0,0,1,0,.86v6.2a2.73,2.73,0,0,0,5.45,0V7.74A5.75,5.75,0,0,0,16.49,2H15.9a1,1,0,1,1,0-2h.59a7.75,7.75,0,0,1,7.74,7.74v6.15A4.73,4.73,0,0,1,19.51,18.61Z"/><path d="M27.79,24.35H22.67a4.73,4.73,0,0,1-4-7.26,1,1,0,0,1,1.69,1.07A2.7,2.7,0,0,0,20,19.62a2.73,2.73,0,0,0,2.72,2.73h5.12a2.73,2.73,0,0,0,0-5.45H22.64a1,1,0,0,1,0-2h5.15a4.73,4.73,0,0,1,0,9.45Z"/></g></g></svg>