<svg xmlns="http://www.w3.org/2000/svg" xmlns:xlink="http://www.w3.org/1999/xlink" version="1.1" id="Calque_1" x="0px" y="0px" viewBox="0 0 65.7 65.7" style="enable-background:new 0 0 65.7 65.7;" xml:space="preserve">
  <style type="text/css">
	.st0{fill:#000000;}
</style>
  <path class="st0" d="M27.5,44.7c-0.4,0-0.8-0.1-1.2-0.3C25.4,44,25,43.2,25,42.3V23.4c0-0.9,0.5-1.8,1.2-2.2c0.8-0.4,1.8-0.4,2.5,0  l16.2,9.4l0,0c0.8,0.4,1.2,1.2,1.2,2.2c0,0.9-0.5,1.8-1.2,2.2l-16.2,9.4C28.3,44.6,27.9,44.7,27.5,44.7z M27.6,22.9  c-0.2,0-0.3,0.1-0.4,0.1c-0.1,0.1-0.4,0.3-0.4,0.7V42c0,0.4,0.3,0.6,0.4,0.7c0.1,0.1,0.4,0.2,0.8,0l15.8-9.1  c0.3-0.2,0.4-0.5,0.4-0.7c0-0.2,0-0.5-0.4-0.7L28,23C27.8,22.9,27.7,22.9,27.6,22.9z"/>
</svg>