<svg xmlns="http://www.w3.org/2000/svg" viewBox="0 0 37.69 43.24"><g id="Calque_2" data-name="Calque 2"><g id="Calque_1-2" data-name="Calque 1"><path d="M15.93,43.24A15.9,15.9,0,0,1,.47,23.51l3.24-13a1,1,0,0,1,1.21-.73A1,1,0,0,1,5.65,11L2.41,24a13.9,13.9,0,1,0,27,6.7l3.23-13a1,1,0,0,1,1.94.48l-3.23,13a15.9,15.9,0,0,1-15.4,12.07Z"/><path d="M10.3,20a1,1,0,0,1-.24,0,1,1,0,0,1-.73-1.21L12.65,5.38A2.72,2.72,0,1,0,7.36,4.07L4,17.42a1,1,0,0,1-1.94-.48L5.42,3.58a4.72,4.72,0,0,1,9.17,2.28L11.27,19.21A1,1,0,0,1,10.3,20Z"/><path d="M24.9,23l-.25,0a1,1,0,0,1-.72-1.21L25,17.36a2.72,2.72,0,0,0-2-3.3,2.72,2.72,0,0,0-3.3,2L18.5,21a1,1,0,0,1-1.94-.48l1.23-5a4.73,4.73,0,0,1,2.15-2.91,4.72,4.72,0,0,1,7,5.19l-1.09,4.42A1,1,0,0,1,24.9,23Z"/><path d="M32,25.36a1,1,0,0,1-.24,0A1,1,0,0,1,31,24.12L35.61,5.63a2.66,2.66,0,0,0-.31-2.06,2.73,2.73,0,0,0-3.74-.93,2.72,2.72,0,0,0-1.24,1.68L25.87,22.26a1,1,0,0,1-1.22.73,1,1,0,0,1-.72-1.21l4.45-18A4.71,4.71,0,0,1,30.53.93,4.64,4.64,0,0,1,34.11.39,4.72,4.72,0,0,1,37,2.54a4.66,4.66,0,0,1,.53,3.57L33,24.6A1,1,0,0,1,32,25.36Z"/><path d="M15.19,34.81a1.1,1.1,0,0,1-.4-.08,1,1,0,0,1-.51-1.32,8.22,8.22,0,0,1,4.06-4.32l-.76-.18a4.72,4.72,0,1,1,2.28-9.17l6,1.48a7.75,7.75,0,0,1,5.65,9.38l-.14.57a1,1,0,0,1-1.21.73,1,1,0,0,1-.73-1.21l.14-.57a5.75,5.75,0,0,0-4.19-7l-6-1.48a2.74,2.74,0,0,0-3.3,2,2.78,2.78,0,0,0,.31,2.07A2.72,2.72,0,0,0,18.06,27l6,1.5a7.71,7.71,0,0,1,.83.21,1,1,0,0,1-.54,1.92l-.53-.13a6.58,6.58,0,0,0-7.74,3.76A1,1,0,0,1,15.19,34.81Z"/><path d="M13.92,24.59a4.4,4.4,0,0,1-1.14-.14,4.66,4.66,0,0,1-2.91-2.14,4.72,4.72,0,0,1-.54-3.58l1.24-5a4.66,4.66,0,0,1,2.14-2.91,4.73,4.73,0,0,1,7,5.18L18.5,21a1,1,0,0,1-1.22.73,1,1,0,0,1-.72-1.21l1.23-5a2.66,2.66,0,0,0-.31-2.06,2.71,2.71,0,0,0-3.73-.93,2.67,2.67,0,0,0-1.24,1.68l-1.24,5a2.75,2.75,0,0,0,.31,2.06,2.67,2.67,0,0,0,1.68,1.24,2.63,2.63,0,0,0,1.52-.06,1,1,0,0,1,1.27.64,1,1,0,0,1-.64,1.26A4.7,4.7,0,0,1,13.92,24.59Z"/></g></g></svg>