<?xml version="1.0" encoding="UTF-8"?>
<!DOCTYPE svg PUBLIC "-//W3C//DTD SVG 1.1//EN" "http://www.w3.org/Graphics/SVG/1.1/DTD/svg11.dtd">
<svg xmlns="http://www.w3.org/2000/svg" version="1.1" width="584px" height="123px" style="shape-rendering:geometricPrecision; text-rendering:geometricPrecision; image-rendering:optimizeQuality; fill-rule:evenodd; clip-rule:evenodd" xmlns:xlink="http://www.w3.org/1999/xlink">
<g><path style="opacity:0.98" fill="#fd7702" d="M 223.5,-0.5 C 230.5,-0.5 237.5,-0.5 244.5,-0.5C 280.235,10.9398 294.402,35.2731 287,72.5C 277.582,96.9644 259.749,109.798 233.5,111C 229.63,114.702 225.963,118.536 222.5,122.5C 220.833,122.5 219.167,122.5 217.5,122.5C 216.038,97.864 216.205,73.1974 218,48.5C 222.545,39.7517 229.712,36.585 239.5,39C 249.504,44.0017 252.67,51.835 249,62.5C 246.349,67.6574 242.182,70.6574 236.5,71.5C 236.5,76.1667 236.5,80.8333 236.5,85.5C 258.907,79.9291 267.407,65.9291 262,43.5C 253.063,26.8534 239.563,21.3534 221.5,27C 212.48,31.5234 206.646,38.69 204,48.5C 203.667,64.8333 203.333,81.1667 203,97.5C 201.412,99.9677 199.578,100.134 197.5,98C 176.272,76.6267 172.439,52.46 186,25.5C 195.042,11.738 207.542,3.07131 223.5,-0.5 Z"/></g>
<g><path style="opacity:0.94" fill="#000000" d="M 347.5,4.5 C 377.29,3.46702 397.456,16.8004 408,44.5C 415.064,78.5447 402.564,102.045 370.5,115C 336.461,122.066 312.961,109.566 300,77.5C 293.379,49.686 301.879,27.8527 325.5,12C 332.578,8.3637 339.911,5.8637 347.5,4.5 Z M 352.5,24.5 C 374.828,26.6619 387.494,38.8286 390.5,61C 387.698,82.4689 375.531,94.6355 354,97.5C 332.5,94.6667 320.333,82.5 317.5,61C 320.248,40.0884 331.915,27.9217 352.5,24.5 Z"/></g>
<g><path style="opacity:0.955" fill="#000000" d="M -0.5,7.5 C 10.1719,7.3335 20.8385,7.50016 31.5,8C 50.8391,11.6747 61.5057,23.3413 63.5,43C 59.7258,68.27 45.0591,80.1033 19.5,78.5C 19.5,90.5 19.5,102.5 19.5,114.5C 12.8333,114.5 6.16667,114.5 -0.5,114.5C -0.5,78.8333 -0.5,43.1667 -0.5,7.5 Z M 19.5,27.5 C 32.4366,25.2775 40.1033,30.4441 42.5,43C 40.0953,55.559 32.4286,60.7257 19.5,58.5C 19.5,48.1667 19.5,37.8333 19.5,27.5 Z"/></g>
<g><path style="opacity:0.949" fill="#000000" d="M 66.5,7.5 C 73.1667,7.5 79.8333,7.5 86.5,7.5C 86.5,43.1667 86.5,78.8333 86.5,114.5C 79.8333,114.5 73.1667,114.5 66.5,114.5C 66.5,78.8333 66.5,43.1667 66.5,7.5 Z"/></g>
<g><path style="opacity:0.941" fill="#000000" d="M 91.5,7.5 C 110.751,25.9189 129.585,44.9189 148,64.5C 148.5,45.5029 148.667,26.5029 148.5,7.5C 155.167,7.5 161.833,7.5 168.5,7.5C 168.833,42.8396 168.5,78.173 167.5,113.5C 148.846,94.6789 130.346,75.6789 112,56.5C 111.5,75.4971 111.333,94.4971 111.5,113.5C 104.833,113.5 98.1667,113.5 91.5,113.5C 91.5,78.1667 91.5,42.8333 91.5,7.5 Z"/></g>
<g><path style="opacity:0.949" fill="#000000" d="M 415.5,7.5 C 422.167,7.5 428.833,7.5 435.5,7.5C 435.5,43.1667 435.5,78.8333 435.5,114.5C 428.833,114.5 422.167,114.5 415.5,114.5C 415.5,78.8333 415.5,43.1667 415.5,7.5 Z"/></g>
<g><path style="opacity:0.938" fill="#000000" d="M 497.5,7.5 C 504.167,7.5 510.833,7.5 517.5,7.5C 517.667,43.1682 517.5,78.8349 517,114.5C 498.695,95.195 480.029,76.195 461,57.5C 460.5,76.4971 460.333,95.4971 460.5,114.5C 453.833,114.5 447.167,114.5 440.5,114.5C 440.167,79.1604 440.5,43.827 441.5,8.5C 460.154,27.3211 478.654,46.3211 497,65.5C 497.5,46.1695 497.667,26.8362 497.5,7.5 Z"/></g>
<g><path style="opacity:0.943" fill="#000000" d="M 583.5,7.5 C 583.5,14.5 583.5,21.5 583.5,28.5C 576.833,28.5 570.167,28.5 563.5,28.5C 563.5,57.1667 563.5,85.8333 563.5,114.5C 556.833,114.5 550.167,114.5 543.5,114.5C 543.5,85.8333 543.5,57.1667 543.5,28.5C 536.833,28.5 530.167,28.5 523.5,28.5C 523.5,21.5 523.5,14.5 523.5,7.5C 543.5,7.5 563.5,7.5 583.5,7.5 Z"/></g>
</svg>
