<?xml version="1.0" encoding="UTF-8"?>
<!DOCTYPE svg PUBLIC "-//W3C//DTD SVG 1.1//EN" "http://www.w3.org/Graphics/SVG/1.1/DTD/svg11.dtd">
<svg xmlns="http://www.w3.org/2000/svg" version="1.1" width="4042px" height="4478px" style="shape-rendering:geometricPrecision; text-rendering:geometricPrecision; image-rendering:optimizeQuality; fill-rule:evenodd; clip-rule:evenodd" xmlns:xlink="http://www.w3.org/1999/xlink">
<g><path style="opacity:0.999" fill="#fe7702" d="M 1956.5,-0.5 C 1999.17,-0.5 2041.83,-0.5 2084.5,-0.5C 2523.87,17.2017 2916.87,159.368 3263.5,426C 3568.14,666.643 3787.64,969.476 3922,1334.5C 3998.86,1549.62 4038.69,1771.28 4041.5,1999.5C 4041.5,2012.83 4041.5,2026.17 4041.5,2039.5C 4034.54,2451.86 3915.37,2827.86 3684,3167.5C 3471.53,3471.79 3197.03,3701.96 2860.5,3858C 2581.63,3984.44 2288.96,4045.11 1982.5,4040C 1843.5,4179 1704.5,4318 1565.5,4457C 1552.41,4467.38 1537.75,4474.21 1521.5,4477.5C 1512.83,4477.5 1504.17,4477.5 1495.5,4477.5C 1489.7,4476.16 1483.87,4474.5 1478,4472.5C 1447.05,4460.05 1428.72,4436.38 1423,4401.5C 1422.33,3599.83 1422.33,2798.17 1423,1996.5C 1434.65,1802.65 1517.82,1648.15 1672.5,1533C 1816.74,1433.68 1975.07,1401.02 2147.5,1435C 2309.48,1472.83 2435.64,1560.99 2526,1699.5C 2618.61,1851.8 2641.61,2014.13 2595,2186.5C 2545.33,2347.44 2446.83,2468.28 2299.5,2549C 2236.23,2581.92 2169.23,2603.09 2098.5,2612.5C 2098.5,2791.5 2098.5,2970.5 2098.5,3149.5C 2381.6,3127.33 2623.44,3017 2824,2818.5C 3013.81,2624.48 3122.15,2391.48 3149,2119.5C 3170.27,1850.76 3106.27,1604.76 2957,1381.5C 2806.86,1165.93 2606.36,1017.77 2355.5,937C 2118.56,866.392 1882.9,870.392 1648.5,949C 1406.49,1035.86 1214.33,1186.03 1072,1399.5C 957.285,1576.93 895.952,1771.6 888,1983.5C 886.801,2161.16 885.967,2338.83 885.5,2516.5C 886.646,2855.17 887.146,3193.83 887,3532.5C 879.71,3573.79 855.544,3598.62 814.5,3607C 790.173,3610.09 768.173,3604.42 748.5,3590C 473.917,3365.38 270.75,3088.22 139,2758.5C 49.1656,2527.16 2.66559,2287.5 -0.5,2039.5C -0.5,2026.17 -0.5,2012.83 -0.5,1999.5C 5.79872,1606.82 114.965,1245.82 327,916.5C 543.28,589.214 829.446,343.38 1185.5,179C 1430.73,68.6095 1687.73,8.7762 1956.5,-0.5 Z"/></g>
</svg>
